<?xml version="1.0" standalone="no"?>
<!DOCTYPE svg PUBLIC "-//W3C//DTD SVG 20010904//EN"
 "http://www.w3.org/TR/2001/REC-SVG-20010904/DTD/svg10.dtd">
<svg version="1.0" xmlns="http://www.w3.org/2000/svg"
 width="549.000000pt" height="538.000000pt" viewBox="0 0 549.000000 538.000000"
 preserveAspectRatio="xMidYMid meet">
<metadata>
Created by potrace 1.16, written by Peter Selinger 2001-2019
</metadata>
<g transform="translate(0.000000,538.000000) scale(0.100000,-0.100000)"
fill="#000000" stroke="none">
<path d="M2718 4137 c-9 -23 -40 -94 -68 -157 -28 -63 -64 -146 -80 -185 -57
-141 -183 -432 -216 -500 -18 -38 -53 -119 -77 -178 l-44 -108 -69 46 c-38 26
-87 56 -109 67 -51 26 -300 171 -520 303 -154 93 -230 137 -365 213 -25 13
-83 47 -129 74 -46 27 -85 47 -88 44 -3 -2 22 -89 56 -193 33 -103 83 -260
110 -348 121 -391 154 -494 176 -555 14 -36 50 -145 81 -242 l56 -178 1307 0
1308 0 58 193 c32 105 64 203 70 217 7 14 45 131 85 260 77 249 168 538 229
733 21 64 34 117 30 117 -5 0 -61 -31 -125 -70 -64 -38 -118 -70 -120 -70 -2
0 -25 -13 -51 -28 -27 -16 -82 -48 -123 -72 -41 -24 -97 -58 -125 -75 -27 -18
-131 -79 -230 -135 -99 -57 -191 -111 -205 -120 -14 -10 -56 -35 -95 -56 -38
-21 -97 -55 -129 -76 -33 -21 -62 -38 -66 -38 -9 0 -105 216 -327 735 -96 226
-178 413 -182 417 -4 4 -14 -11 -23 -35z m103 -730 c52 -35 79 -82 79 -136 -2
-125 -116 -194 -239 -145 -32 12 -45 26 -66 67 -35 72 -32 107 18 181 40 58
146 75 208 33z m-1193 -268 c178 -38 157 -299 -25 -316 -151 -15 -234 155
-133 271 24 27 66 50 102 55 4 1 29 -4 56 -10z m2347 -18 c108 -62 97 -240
-17 -286 -149 -59 -286 91 -210 230 41 78 145 104 227 56z"/>
<path d="M1477 2033 c-4 -3 -7 -89 -7 -190 l0 -183 1265 0 1265 0 0 190 0 190
-1258 0 c-692 0 -1262 -3 -1265 -7z"/>
</g>
</svg>
